<svg width="80" height="80" viewBox="0 0 80 80" fill="none" xmlns="http://www.w3.org/2000/svg">
<rect x="30" y="10" width="20" height="60" fill="white"/>
<rect x="10" y="50" width="20" height="21" transform="rotate(-90 10 50)" fill="white"/>
<rect x="49" y="50" width="20" height="22" transform="rotate(-90 49 50)" fill="white"/>
<rect x="21" y="21" width="10" height="10" fill="white"/>
<rect x="12" y="12" width="10" height="10" fill="white"/>
<rect x="12" y="57" width="10" height="10" fill="white"/>
<rect x="58" y="58" width="10" height="10" fill="white"/>
<rect x="49" y="21" width="10" height="10" fill="white"/>
<rect x="58" y="12" width="10" height="10" fill="white"/>
<rect x="35" y="6" width="10" height="5" fill="white"/>
<rect x="35" y="69" width="10" height="5" fill="white"/>
<rect x="70" y="45" width="10" height="5" transform="rotate(-90 70 45)" fill="white"/>
<rect x="58" y="26" width="5" height="5" transform="rotate(-90 58 26)" fill="white"/>
<rect x="54" y="22" width="5" height="5" transform="rotate(-90 54 22)" fill="white"/>
<rect x="17" y="26" width="5" height="5" transform="rotate(-90 17 26)" fill="white"/>
<rect x="21" y="22" width="5" height="5" transform="rotate(-90 21 22)" fill="white"/>
<rect x="21" y="62" width="5" height="5" transform="rotate(-90 21 62)" fill="white"/>
<rect x="17" y="58" width="5" height="5" transform="rotate(-90 17 58)" fill="white"/>
<rect x="58" y="59" width="5" height="5" transform="rotate(-90 58 59)" fill="white"/>
<rect x="54" y="63" width="5" height="5" transform="rotate(-90 54 63)" fill="white"/>
<rect x="6" y="45" width="10" height="5" transform="rotate(-90 6 45)" fill="white"/>
<rect x="49" y="49" width="10" height="10" fill="white"/>
<rect x="21" y="48" width="10" height="10" fill="white"/>
</svg>
