<svg width="54" height="42" viewBox="0 0 54 42" fill="none" xmlns="http://www.w3.org/2000/svg">
<g filter="url(#filter0_ddd_396_35)">
<path d="M42.9664 2.84745C39.9441 1.49806 36.7536 0.54076 33.4762 0C33.0278 0.78186 32.622 1.58629 32.2606 2.40992C28.7696 1.89689 25.2194 1.89689 21.7284 2.40992C21.3668 1.58637 20.961 0.781954 20.5128 0C17.2333 0.545327 14.0407 1.5049 11.0154 2.8545C5.0094 11.5203 3.38128 19.9709 4.19534 28.3016C7.71258 30.8359 11.6494 32.7633 15.8346 34C16.777 32.7639 17.6109 31.4526 18.3274 30.0799C16.9665 29.5842 15.6529 28.9726 14.4019 28.2522C14.7311 28.0193 15.0531 27.7794 15.3643 27.5465C19.0044 29.2159 22.9774 30.0815 26.9999 30.0815C31.0225 30.0815 34.9955 29.2159 38.6356 27.5465C38.9503 27.797 39.2723 28.0369 39.598 28.2522C38.3446 28.9737 37.0286 29.5865 35.6651 30.0834C36.3808 31.4555 37.2148 32.7657 38.158 34C42.3468 32.7683 46.2866 30.8418 49.8045 28.3051V28.3051C50.7597 18.6443 48.1728 10.2713 42.9664 2.84745ZM19.3586 23.1783C17.0901 23.1783 15.2159 21.1706 15.2159 18.7007C15.2159 16.2308 17.025 14.2055 19.3514 14.2055C21.6778 14.2055 23.5374 16.2308 23.4976 18.7007C23.4578 21.1706 21.6705 23.1783 19.3586 23.1783ZM34.6412 23.1783C32.3691 23.1783 30.5022 21.1706 30.5022 18.7007C30.5022 16.2308 32.3112 14.2055 34.6412 14.2055C36.9713 14.2055 38.8165 16.2308 38.7767 18.7007C38.7369 21.1706 36.9532 23.1783 34.6412 23.1783Z" fill="white"/>
</g>
<defs>
<filter id="filter0_ddd_396_35" x="0" y="0" width="54" height="42" filterUnits="userSpaceOnUse" color-interpolation-filters="sRGB">
<feFlood flood-opacity="0" result="BackgroundImageFix"/>
<feColorMatrix in="SourceAlpha" type="matrix" values="0 0 0 0 0 0 0 0 0 0 0 0 0 0 0 0 0 0 127 0" result="hardAlpha"/>
<feOffset dy="4"/>
<feGaussianBlur stdDeviation="2"/>
<feComposite in2="hardAlpha" operator="out"/>
<feColorMatrix type="matrix" values="0 0 0 0 0 0 0 0 0 0 0 0 0 0 0 0 0 0 0.3 0"/>
<feBlend mode="normal" in2="BackgroundImageFix" result="effect1_dropShadow_396_35"/>
<feColorMatrix in="SourceAlpha" type="matrix" values="0 0 0 0 0 0 0 0 0 0 0 0 0 0 0 0 0 0 127 0" result="hardAlpha"/>
<feOffset dy="4"/>
<feComposite in2="hardAlpha" operator="out"/>
<feColorMatrix type="matrix" values="0 0 0 0 0.180392 0 0 0 0 0.168627 0 0 0 0 0.262745 0 0 0 1 0"/>
<feBlend mode="normal" in2="effect1_dropShadow_396_35" result="effect2_dropShadow_396_35"/>
<feColorMatrix in="SourceAlpha" type="matrix" values="0 0 0 0 0 0 0 0 0 0 0 0 0 0 0 0 0 0 127 0" result="hardAlpha"/>
<feMorphology radius="1" operator="dilate" in="SourceAlpha" result="effect3_dropShadow_396_35"/>
<feOffset dy="2"/>
<feComposite in2="hardAlpha" operator="out"/>
<feColorMatrix type="matrix" values="0 0 0 0 1 0 0 0 0 0.608333 0 0 0 0 0.608333 0 0 0 1 0"/>
<feBlend mode="normal" in2="effect2_dropShadow_396_35" result="effect3_dropShadow_396_35"/>
<feBlend mode="normal" in="SourceGraphic" in2="effect3_dropShadow_396_35" result="shape"/>
</filter>
</defs>
</svg>
