<svg width="46" height="34" viewBox="0 0 46 34" fill="none" xmlns="http://www.w3.org/2000/svg">
<path d="M38.9664 2.84745C35.9441 1.49806 32.7536 0.54076 29.4762 0C29.0278 0.78186 28.622 1.58629 28.2606 2.40992C24.7696 1.89689 21.2194 1.89689 17.7284 2.40992C17.3668 1.58637 16.961 0.781954 16.5128 0C13.2333 0.545327 10.0407 1.5049 7.01537 2.8545C1.0094 11.5203 -0.618721 19.9709 0.19534 28.3016C3.71258 30.8359 7.64938 32.7633 11.8346 34C12.777 32.7639 13.6109 31.4526 14.3274 30.0799C12.9665 29.5842 11.6529 28.9726 10.4019 28.2522C10.7311 28.0193 11.0531 27.7794 11.3643 27.5465C15.0044 29.2159 18.9774 30.0815 22.9999 30.0815C27.0225 30.0815 30.9955 29.2159 34.6356 27.5465C34.9503 27.797 35.2723 28.0369 35.598 28.2522C34.3446 28.9737 33.0286 29.5865 31.6651 30.0834C32.3808 31.4555 33.2148 32.7657 34.158 34C38.3468 32.7683 42.2866 30.8418 45.8045 28.3051C46.7597 18.6443 44.1728 10.2713 38.9664 2.84745ZM15.3586 23.1783C13.0901 23.1783 11.2159 21.1706 11.2159 18.7007C11.2159 16.2308 13.025 14.2055 15.3514 14.2055C17.6778 14.2055 19.5374 16.2308 19.4976 18.7007C19.4578 21.1706 17.6705 23.1783 15.3586 23.1783ZM30.6412 23.1783C28.3691 23.1783 26.5022 21.1706 26.5022 18.7007C26.5022 16.2308 28.3112 14.2055 30.6412 14.2055C32.9713 14.2055 34.8165 16.2308 34.7767 18.7007C34.7369 21.1706 32.9532 23.1783 30.6412 23.1783Z" fill="white"/>
</svg>
