<svg width="80" height="80" viewBox="0 0 80 80" fill="none" xmlns="http://www.w3.org/2000/svg">
<rect x="38" y="28" width="4" height="24" fill="white"/>
<rect x="28" y="42" width="4" height="11" transform="rotate(-90 28 42)" fill="white"/>
<rect x="41" y="42" width="4" height="11" transform="rotate(-90 41 42)" fill="white"/>
<rect x="41" y="34" width="5" height="5" fill="white"/>
<rect x="22" y="54" width="4" height="4" fill="white"/>
<rect x="58" y="58" width="4" height="4" transform="rotate(-180 58 58)" fill="white"/>
<rect x="39" y="39" width="5" height="5" transform="rotate(-180 39 39)" fill="white"/>
<rect x="46" y="30" width="4" height="4" fill="white"/>
<rect x="26" y="50" width="4" height="4" fill="white"/>
<rect x="54" y="54" width="4" height="4" transform="rotate(-180 54 54)" fill="white"/>
<rect x="34" y="34" width="4" height="4" transform="rotate(-180 34 34)" fill="white"/>
<rect x="50" y="26" width="4" height="4" fill="white"/>
<rect x="30" y="46" width="4" height="4" fill="white"/>
<rect x="50" y="50" width="4" height="4" transform="rotate(-180 50 50)" fill="white"/>
<rect x="30" y="30" width="4" height="4" transform="rotate(-180 30 30)" fill="white"/>
<rect x="54" y="22" width="4" height="4" fill="white"/>
<rect x="34" y="41" width="5" height="5" fill="white"/>
<rect x="46" y="46" width="5" height="5" transform="rotate(-180 46 46)" fill="white"/>
<rect x="26" y="26" width="4" height="4" transform="rotate(-180 26 26)" fill="white"/>
<rect x="52" y="24" width="3" height="3" fill="white"/>
<rect x="32" y="44" width="3" height="3" fill="white"/>
<rect x="47" y="48" width="3" height="3" transform="rotate(-180 47 48)" fill="white"/>
<rect x="27" y="28" width="3" height="3" transform="rotate(-180 27 28)" fill="white"/>
<rect x="48" y="28" width="3" height="3" fill="white"/>
<rect x="28" y="48" width="3" height="3" fill="white"/>
<rect x="51" y="52" width="3" height="3" transform="rotate(-180 51 52)" fill="white"/>
<rect x="31" y="32" width="3" height="3" transform="rotate(-180 31 32)" fill="white"/>
<rect x="44" y="32" width="3" height="3" fill="white"/>
<rect x="24" y="52" width="3" height="3" fill="white"/>
<rect x="55" y="56" width="3" height="3" transform="rotate(-180 55 56)" fill="white"/>
<rect x="35" y="36" width="3" height="3" transform="rotate(-180 35 36)" fill="white"/>
<rect x="45" y="33" width="3" height="3" fill="white"/>
<rect x="25" y="53" width="3" height="3" fill="white"/>
<rect x="56" y="54" width="3" height="2" transform="rotate(-180 56 54)" fill="white"/>
<rect x="36" y="35" width="3" height="3" transform="rotate(-180 36 35)" fill="white"/>
<rect x="49" y="29" width="3" height="3" fill="white"/>
<rect x="29" y="49" width="3" height="3" fill="white"/>
<rect x="52" y="51" width="3" height="3" transform="rotate(-180 52 51)" fill="white"/>
<rect x="32" y="31" width="3" height="3" transform="rotate(-180 32 31)" fill="white"/>
<rect x="53" y="25" width="3" height="3" fill="white"/>
<rect x="33" y="45" width="3" height="3" fill="white"/>
<rect x="48" y="47" width="3" height="3" transform="rotate(-180 48 47)" fill="white"/>
<rect x="28" y="27" width="3" height="3" transform="rotate(-180 28 27)" fill="white"/>
<rect x="39" y="26" width="2" height="3" fill="white"/>
<rect x="51" y="39" width="3" height="2" fill="white"/>
<rect x="39" y="51" width="2" height="3" fill="white"/>
<rect x="26" y="39" width="3" height="2" fill="white"/>
<rect x="25" y="39.5" width="2" height="1" fill="white"/>
<rect x="39.5" y="25" width="1" height="2" fill="white"/>
<rect x="53" y="39.5" width="2" height="1" fill="white"/>
<rect x="39.5" y="53" width="1" height="2" fill="white"/>
</svg>
