<svg width="882" height="244" viewBox="0 0 882 244" fill="none" xmlns="http://www.w3.org/2000/svg">
<g clip-path="url(#clip0_24:936)">
<g filter="url(#filter0_d_24:936)">
<path d="M143.483 8.41379V0H92.8422V8.41379H80.1819V58.8966H92.8422V69.4138H143.483V58.8966H151.923V8.41379H143.483ZM130.823 61H101.282V8.41379H130.823V61Z" fill="white"/>
<path d="M882 37.8621V58.8966H873.56V69.4138H820.809V58.8966H812.368V50.4828H831.359V61H863.01V37.8621H820.809V27.3448H812.368V8.41379H820.809V0H863.01V8.41379H873.56V16.8276H852.459V8.41379H831.359V29.4483H873.56V37.8621H882Z" fill="white"/>
<path d="M386.139 18.931V8.41379H375.588V0H343.938V8.41379H335.498V18.931H324.947V69.4138H343.938V48.3793H375.588V69.4138H394.579V18.931H386.139ZM375.588 37.8621H343.938V18.931H354.488V8.41379H367.148V18.931H375.588V37.8621Z" fill="white"/>
<path d="M721.636 61V69.4138H660.445V0H679.435V61H721.636Z" fill="white"/>
<path d="M476.871 0V69.4138H455.77V58.8966H445.22V50.4828H436.78V37.8621H426.23V69.4138H405.129V0H426.23V8.41379H436.78V18.931H445.22V27.3448H455.77V0H476.871Z" fill="white"/>
<path d="M557.053 0V8.41379H516.962V18.931H506.411V50.4828H516.962V61H538.062V37.8621H527.512V29.4483H557.053V69.4138H506.411V58.8966H497.971V50.4828H487.421V18.931H497.971V8.41379H506.411V0H557.053Z" fill="white"/>
<path d="M639.345 0V8.41379H588.703V29.4483H628.794V37.8621H588.703V61H639.345V69.4138H567.603V0H639.345Z" fill="white"/>
<path d="M801.818 0V8.41379H751.177V29.4483H791.268V37.8621H751.177V61H801.818V69.4138H730.077V0H801.818Z" fill="white"/>
<path d="M69.6316 37.8621V58.8966H61.1914V69.4138H8.44019V58.8966H0V50.4828H18.9904V61H50.6412V37.8621H8.44019V27.3448H0V8.41379H8.44019V0H50.6412V8.41379H61.1914V16.8276H42.201V8.41379H18.9904V29.4483H61.1914V37.8621H69.6316Z" fill="white"/>
<path d="M234.215 61V69.4138H173.024V0H192.014V61H234.215Z" fill="white"/>
<path d="M61.1914 69.4138H8.44019V77.8276H61.1914V69.4138Z" fill="#FAB097"/>
<path d="M151.923 58.8965H143.483V67.3103H151.923V58.8965Z" fill="#FAB097"/>
<path d="M92.8422 58.8965H80.1819V67.3103H92.8422V58.8965Z" fill="#FAB097"/>
<path d="M8.44019 27.345H0V37.8622H8.44019V27.345Z" fill="#FAB097"/>
<path d="M50.6411 37.8621H8.44019V48.3793H50.6411V37.8621Z" fill="#FAB097"/>
<path d="M143.483 69.4138H92.842V77.8276H143.483V69.4138Z" fill="#FAB097"/>
<path d="M8.44019 58.8965H0V67.3103H8.44019V58.8965Z" fill="#FAB097"/>
<path d="M234.215 69.4138H173.024V77.8276H234.215V69.4138Z" fill="#FAB097"/>
<path d="M69.6316 58.8965H61.1914V67.3103H69.6316V58.8965Z" fill="#FAB097"/>
<path d="M130.823 8.41382H101.282V16.8276H130.823V8.41382Z" fill="#FAB097"/>
<path d="M42.201 8.41382H18.9905V16.8276H42.201V8.41382Z" fill="#FAB097"/>
<path d="M61.1914 16.8276H42.2009V27.3449H61.1914V16.8276Z" fill="#FAB097"/>
<path d="M436.78 37.8621H426.23V48.3793H436.78V37.8621Z" fill="#FAB097"/>
<path d="M367.148 8.41382H354.488V16.8276H367.148V8.41382Z" fill="#FAB097"/>
<path d="M445.22 50.4829H436.78V58.8967H445.22V50.4829Z" fill="#FAB097"/>
<path d="M506.411 58.8965H497.971V67.3103H506.411V58.8965Z" fill="#FAB097"/>
<path d="M394.579 69.4138H375.588V77.8276H394.579V69.4138Z" fill="#FAB097"/>
<path d="M557.053 8.41382H516.962V16.8276H557.053V8.41382Z" fill="#FAB097"/>
<path d="M426.23 69.4138H405.129V77.8276H426.23V69.4138Z" fill="#FAB097"/>
<path d="M538.062 37.8621H527.512V48.3793H538.062V37.8621Z" fill="#FAB097"/>
<path d="M557.053 69.4138H506.411V77.8276H557.053V69.4138Z" fill="#FAB097"/>
<path d="M476.871 69.4138H455.77V77.8276H476.871V69.4138Z" fill="#FAB097"/>
<path d="M343.938 69.4138H324.947V77.8276H343.938V69.4138Z" fill="#FAB097"/>
<path d="M455.77 58.8965H445.22V67.3103H455.77V58.8965Z" fill="#FAB097"/>
<path d="M375.589 18.9312H367.148V27.3449H375.589V18.9312Z" fill="#FAB097"/>
<path d="M497.971 50.4829H487.421V58.8967H497.971V50.4829Z" fill="#FAB097"/>
<path d="M516.962 18.9312H506.411V27.3449H516.962V18.9312Z" fill="#FAB097"/>
<path d="M375.588 48.3794H343.938V56.7932H375.588V48.3794Z" fill="#FAB097"/>
<path d="M354.488 18.9312H343.938V27.3449H354.488V18.9312Z" fill="#FAB097"/>
<path d="M639.345 69.4138H567.603V77.8276H639.345V69.4138Z" fill="#FAB097"/>
<path d="M639.344 8.41382H588.703V16.8276H639.344V8.41382Z" fill="#FAB097"/>
<path d="M721.636 69.4138H660.445V77.8276H721.636V69.4138Z" fill="#FAB097"/>
<path d="M801.818 8.41382H751.177V16.8276H801.818V8.41382Z" fill="#FAB097"/>
<path d="M873.56 16.8276H852.459V27.3449H873.56V16.8276Z" fill="#FAB097"/>
<path d="M882 58.8965H873.56V67.3103H882V58.8965Z" fill="#FAB097"/>
<path d="M820.809 27.345H812.368V37.8622H820.809V27.345Z" fill="#FAB097"/>
<path d="M873.56 69.4138H820.809V77.8276H873.56V69.4138Z" fill="#FAB097"/>
<path d="M628.794 37.8621H588.703V48.3793H628.794V37.8621Z" fill="#FAB097"/>
<path d="M863.01 37.8621H820.809V48.3793H863.01V37.8621Z" fill="#FAB097"/>
<path d="M791.268 37.8621H751.177V48.3793H791.268V37.8621Z" fill="#FAB097"/>
<path d="M801.818 69.4138H730.077V77.8276H801.818V69.4138Z" fill="#FAB097"/>
<path d="M852.459 8.41382H831.359V16.8276H852.459V8.41382Z" fill="#FAB097"/>
<path d="M820.809 58.8965H812.368V67.3103H820.809V58.8965Z" fill="#FAB097"/>
<path d="M476.871 117.793H470.541V115.69H468.431V109.379H470.541V96.7588H472.651V92.5519H470.541V86.2416H468.431V84.1381H462.1V82.0347H453.66V84.1381H451.55V86.2416H449.44V88.345H445.22V90.4485H443.11V94.6554H438.89V98.8623H436.78V103.069H434.67V105.173H432.56V109.379H430.45V111.483H428.34V115.69H426.23V117.793H424.119V124.104H422.009V128.311H419.899V130.414H417.789V132.517H415.679V134.621H411.459V136.724H409.349V138.828H405.129V140.931H400.909V143.035H398.799V140.931H396.689V138.828H394.579V132.517H396.689V130.414H398.799V128.311H400.909V126.207H403.019V124.104H405.129V119.897H409.349V117.793H411.459V115.69H415.679V111.483H417.789V107.276H419.899V103.069H417.789V98.8623H413.569V96.7588H403.019V98.8623H400.909V100.966H398.799V103.069H394.579V107.276H392.469V111.483H390.359V117.793H388.249V126.207H386.139V138.828H384.029V143.035H386.139V145.138H388.249V147.242H396.689V149.345H407.239V147.242H409.349V145.138H411.459V143.035H417.789V140.931H419.899V138.828H424.119V136.724H428.34V138.828H434.67V136.724H436.78V134.621H443.11V132.517H445.22V128.311H449.44V124.104H451.55V119.897H453.66V117.793H457.88V122H455.77V128.311H457.88V130.414H470.541V128.311H476.871V126.207H478.981V124.104H481.091V122L476.871 117.793ZM398.799 115.69H400.909V111.483H403.019V109.379H405.129V107.276H409.349V113.586H405.129V115.69H403.019V117.793H398.799V115.69ZM459.99 96.7588H457.88V98.8623H455.77V103.069H453.66V107.276H451.55V109.379H449.44V111.483H445.22V113.586H443.11V117.793H441V119.897H438.89V124.104H434.67V119.897H436.78V115.69H438.89V109.379H441V107.276H443.11V105.173H445.22V100.966H447.33V96.7588H451.55V94.6554H453.66V92.5519H455.77V90.4485H459.99V96.7588Z" fill="#FF277F"/>
<path d="M333.387 52.5863V58.8966H331.277V69.4139H333.387V71.5173H331.277V79.9311H329.167V86.2415H327.057V92.5518H324.947V100.966H320.727V105.172H318.617V109.379H316.507V117.793H312.287V122H310.177V126.207H308.067V128.31H305.957V134.621H303.847V138.828H301.737V143.035H299.627V145.138H297.517V147.241H295.407V151.448H293.297V153.552H291.186V157.759H286.966V159.862H284.856V161.966H282.746V166.172H278.526V170.379H276.416V174.586H274.306V178.793H270.086V180.897H267.976V183H265.866V185.104H263.756V187.207H261.646V191.414H259.536V193.517H257.426V195.621H253.206V197.724H251.096V201.931H248.986V204.035H246.875V206.138H242.655V208.241H240.545V210.345H234.215V208.241H236.325V206.138H238.435V204.035H240.545V201.931H242.655V199.828H246.875V195.621H248.986V191.414H251.096V189.31H253.206V187.207H257.426V185.104H259.536V180.897H261.646V178.793H263.756V174.586H265.866V172.483H267.976V168.276H270.086V166.172H272.196V164.069H274.306V159.862H276.416V157.759H278.526V153.552H280.636V151.448H282.746V147.241H284.856V145.138H286.966V140.931H289.076V136.724H291.186V130.414H293.297V128.31H295.407V126.207H297.517V122H299.627V119.897H301.737V115.69H303.847V111.483H305.957V109.379H303.847V105.172H305.957V98.8621H308.067V92.5518H310.177V90.4483H312.287V82.0346H314.397V75.7242H316.507V56.7932H318.617V52.5863H316.507V48.3794H314.397V46.2759H312.287V42.069H310.177V39.9656H305.957V37.8621H303.847V35.7587H291.186V33.6552H280.636V35.7587H272.196V33.6552H259.536V35.7587H248.986V37.8621H238.435V39.9656H229.995V42.069H225.775V44.1725H223.665V46.2759H211.005V48.3794H202.564V50.4828H200.454V52.5863H198.344V54.6897H196.234V56.7932H194.124V58.8966H196.234V63.1035H194.124V77.8277H192.014V90.4483H189.904V98.8621H192.014V103.069H189.904V109.379H187.794V115.69H185.684V117.793H187.794V124.104H185.684V140.931H183.574V145.138H185.684V147.241H192.014V145.138H194.124V143.035H198.344V140.931H200.454V138.828H204.675V136.724H208.895V134.621H213.115V138.828H211.005V140.931H208.895V145.138H206.785V147.241H204.675V149.345H200.454V151.448H198.344V155.655H196.234V157.759H192.014V159.862H189.904V161.966H187.794V164.069H183.574V166.172H181.464V174.586H179.354V193.517H177.244V195.621H179.354V199.828H177.244V212.448H175.134V227.172H173.024V229.276H170.914V237.69H164.584V235.586H158.253V233.483H156.143V231.379H154.033V229.276H151.923V227.172H149.813V222.966H147.703V212.448H145.593V208.241H147.703V204.035H149.813V201.931H147.703V197.724H143.483V191.414H147.703V187.207H149.813V185.104H151.923V183H154.033V178.793H156.143V176.69H158.253V174.586H160.364V172.483H162.474V166.172H164.584V164.069H166.694V159.862H168.804V155.655H170.914V151.448H168.804V149.345H170.914V143.035H173.024V140.931H170.914V136.724H173.024V124.104H175.134V111.483H177.244V96.7587H179.354V92.5518H177.244V90.4483H179.354V71.5173H177.244V69.4139H173.024V71.5173H170.914V73.6208H168.804V75.7242H166.694V77.8277H164.584V79.9311H162.474V82.0346H160.364V84.138H158.253V86.2415H156.143V90.4483H151.923V92.5518H147.703V90.4483H143.483V79.9311H145.593V73.6208H147.703V71.5173H149.813V69.4139H154.033V67.3104H156.143V63.1035H158.253V58.8966H162.474V56.7932H164.584V54.6897H166.694V52.5863H170.914V50.4828H173.024V48.3794H175.134V44.1725H177.244V42.069H179.354V35.7587H181.464V29.4484H189.904V27.3449H194.124V31.5518H196.234V33.6552H198.344V35.7587H200.454V37.8621H206.785V35.7587H219.445V33.6552H229.995V31.5518H240.545V29.4484H253.206V27.3449H263.756V25.2415H278.526V27.3449H284.856V25.2415H291.186V27.3449H305.957V29.4484H312.287V31.5518H316.507V33.6552H318.617V35.7587H322.837V37.8621H324.947V39.9656H327.057V46.2759H329.167V50.4828H331.277V52.5863H333.387Z" fill="#FF277F"/>
<path d="M384.029 96.7588H375.589V98.8622H371.368V103.069H369.258V105.173H367.148V109.379H365.038V111.483H362.928V115.69H360.818V117.793H358.708V124.104H356.598V128.31H354.488V132.517H352.378V143.035H348.158V145.138H337.608V143.035H339.718V138.828H341.828V136.724H339.718V132.517H341.828V119.897H343.938V103.069H352.378V105.173H356.598V103.069H358.708V98.8622H360.818V96.7588H362.928V94.6553H367.148V92.5519H369.258V90.4484H377.699V88.345H388.249V90.4484H390.359V94.6553H384.029V96.7588Z" fill="#FF277F"/>
<path d="M677.325 35.7588H662.555V37.8622H656.225V39.9657H654.115V42.0691H652.005V44.1726H647.785V46.276H645.674V50.4829H641.454V52.5864H639.344V50.4829H630.904V67.3105H628.794V71.5174H630.904V75.7243H628.794V82.0346H626.684V86.2415H624.574V88.345H622.464V90.4484H620.354V92.5519H616.134V94.6553H614.024V96.7588H611.914V98.8622H607.694V100.966H605.584V103.069H603.473V105.173H595.033V103.069H592.923V94.6553H595.033V92.5519H597.143V90.4484H599.253V88.345H603.473V84.1381H605.584V82.0346H609.804V79.9312H611.914V77.8278H614.024V73.6209H616.134V69.414H618.244V67.3105H616.134V65.2071H614.024V63.1036H611.914V61.0002H607.694V58.8967H603.473V61.0002H599.253V63.1036H597.143V65.2071H595.033V67.3105H592.923V69.414H590.813V73.6209H588.703V79.9312H586.593V88.345H584.483V90.4484H580.263V92.5519H578.153V96.7588H576.043V100.966H571.823V103.069H569.713V105.173H565.493V109.379H563.383V113.586H561.273V115.69H559.162V119.897H554.942V122H550.722V117.793H552.832V111.483H554.942V103.069H557.052V96.7588H559.162V90.4484H561.273V82.0346H563.383V75.7243H565.493V67.3105H567.603V65.2071H565.493V63.1036H554.942V65.2071H552.832V67.3105H550.722V69.414H548.612V73.6209H546.502V75.7243H544.392V79.9312H542.282V82.0346H538.062V84.1381H535.952V86.2415H529.622V84.1381H525.402V86.2415H519.072V88.345H514.851V90.4484H510.631V88.345H508.521V86.2415H506.411V84.1381H504.301V86.2415H502.191V92.5519H500.081V94.6553H497.971V98.8622H495.861V100.966H493.751V103.069H491.641V105.173H487.421V107.276H485.311V109.379H483.201V111.483H481.091V113.586H478.981V115.69H476.871V117.793L481.091 122H485.311V117.793H487.421V115.69H489.531V111.483H493.751V109.379H497.971V113.586H495.861V115.69H493.751V128.311H502.191V126.207H504.301V119.897H506.411V113.586H508.521V107.276H512.741V115.69H510.631V117.793H512.741V122H516.962V124.104H521.182V122H523.292V119.897H525.402V113.586H527.512V109.379H529.622V105.173H531.732V103.069H533.842V100.966H535.952V96.7588H538.062V94.6553H540.172V90.4484H542.282V88.345H544.392V86.2415H546.502V82.0346H550.722V86.2415H552.832V88.345H550.722V94.6553H548.612V103.069H546.502V109.379H544.392V115.69H542.282V124.104H540.172V132.517H542.282V134.621H544.392V136.724H554.942V134.621H557.052V132.517H559.162V130.414H561.273V126.207H563.383V124.104H565.493V119.897H567.603V117.793H569.713V113.586H571.823V111.483H573.933V107.276H576.043V105.173H578.153V100.966H580.263V98.8622H582.373V96.7588H584.483V100.966H582.373V105.173H584.483V109.379H588.703V111.483H597.143V113.586H603.473V111.483H605.584V109.379H607.694V107.276H614.024V105.173H616.134V103.069H620.354V100.966H622.464V98.8622H624.574V94.6553H628.794V92.5519H633.014V90.4484H639.344V79.9312H641.454V75.7243H643.564V73.6209H645.674V65.2071H647.785V63.1036H649.895V58.8967H652.005V56.7933H654.115V54.6898H656.225V50.4829H658.335V46.276H662.555V44.1726H670.995V42.0691H677.325V35.7588ZM597.143 77.8278H599.253V75.7243H601.363V71.5174H603.473V69.414H605.584V71.5174H607.694V75.7243H605.584V77.8278H603.473V79.9312H601.363V82.0346H597.143V77.8278Z" fill="#FF277F"/>
<path d="M719.526 69.4139V75.7242H717.416V77.8277H715.306V82.0346H713.196V88.3449H711.086V90.4484H708.976V94.6553H706.866V98.8622H704.756V100.966H702.646V103.069H700.536V107.276H698.426V109.379H696.316V111.483H692.096V113.586H689.985V115.69H683.655V117.793H677.325V113.586H681.545V111.483H683.655V109.379H687.875V107.276H689.985V105.173H692.096V100.966H694.206V98.8622H696.316V96.7587H698.426V92.5518H700.536V88.3449H702.646V82.0346H704.756V79.9311H706.866V71.5173H696.316V73.6208H689.985V71.5173H685.765V69.4139H681.545V67.3104H679.435V61.0001H677.325V54.6898H679.435V50.4829H681.545V46.276H683.655V44.1725H685.765V42.0691H687.875V39.9656H692.096V37.8622H698.426V35.7587H702.646V33.6553H708.976V35.7587H713.196V39.9656H704.756V42.0691H700.536V44.1725H698.426V46.276H696.316V48.3794H692.096V50.4829H689.985V52.5863H687.875V58.8967H685.765V63.1035H689.985V61.0001H706.866V63.1035H715.306V65.207H717.416V69.4139H719.526Z" fill="#FF277F"/>
<path d="M230.698 216.655H229.995H229.292H228.588H227.885H227.182H226.478H225.775H225.072H224.368H223.665H222.962H222.258H221.555V217.356V218.058V218.759H220.852H220.148H219.445V219.46V220.161V220.862H218.741H218.038H217.335V221.563V222.264V222.966H216.631H215.928H215.225V223.667V224.368V225.069H214.521H213.818H213.115V225.77V226.471V227.173V227.874V228.575V229.276H212.411H211.708H211.005V229.977V230.678V231.379H211.708H212.411H213.115V232.081V232.782V233.483H213.818H214.521H215.225H215.928H216.631H217.335V232.782V232.081V231.379V230.678V229.977V229.276V228.575V227.874V227.173H218.038H218.741H219.445V226.471V225.77V225.069H220.148H220.852H221.555V224.368V223.667V222.966H222.258H222.962H223.665V222.264V221.563V220.862H224.368H225.072H225.775H226.478H227.182H227.885H228.588H229.292H229.995V220.161V219.46V218.759H230.698H231.402H232.105V218.058V217.356V216.655H231.402H230.698Z" fill="#FF277F"/>
<path d="M207.488 233.483H206.785V232.782V232.081V231.379H206.081H205.378H204.674H203.971H203.268H202.564H201.861H201.158H200.454V232.081V232.782V233.483H199.751H199.048H198.344H197.641H196.938H196.234H195.531H194.828H194.124H193.421H192.718H192.014H191.311H190.607H189.904V234.184V234.885V235.586H189.201H188.497H187.794H187.091H186.387H185.684H184.981H184.277H183.574V236.287V236.989V237.69V238.391V239.092V239.793H184.277H184.981H185.684H186.387H187.091H187.794V239.092V238.391V237.69H188.497H189.201H189.904H190.607H191.311H192.014H192.718H193.421H194.124H194.828H195.531H196.234H196.938H197.641H198.344V236.989V236.287V235.586H199.048H199.751H200.454H201.158H201.861H202.564H203.268H203.971H204.674H205.378H206.081H206.785H207.488H208.191H208.895V234.885V234.184V233.483H208.191H207.488Z" fill="#FF277F"/>
<path d="M147.703 197.724H143.483V201.931H147.703V197.724Z" fill="#C70051"/>
<path d="M156.144 90.4483V86.2414H158.254V84.138H160.364V82.0345H162.474V79.9311H164.584V77.8276H166.694V75.7242H168.804V73.6207H170.914V71.5173H173.024V69.4138H177.244V71.5173H179.354V75.7242H177.244V73.6207H173.024V75.7242H170.914V77.8276H168.804V79.9311H166.694V82.0345H164.584V84.138H162.474V86.2414H160.364V88.3449H158.254V90.4483H156.144Z" fill="#C70051"/>
<path d="M162.474 197.724H160.363V199.828H158.253V195.621H160.363V193.517H162.474V197.724Z" fill="#C70051"/>
<path d="M181.464 174.586H179.354V178.793H181.464V174.586Z" fill="#C70051"/>
<path d="M208.895 237.69V239.793H198.344V241.897H187.794V244H183.574V239.793H189.904V237.69H200.454V235.586H206.785V237.69H208.895Z" fill="#C70051"/>
<path d="M196.234 63.1035H194.124V67.3104H196.234V63.1035Z" fill="#C70051"/>
<path d="M217.335 233.483V237.69H213.115V235.586H211.005V233.483H217.335Z" fill="#C70051"/>
<path d="M147.703 212.448H145.593V216.655H147.703V212.448Z" fill="#C70051"/>
<path d="M149.813 222.966H147.703V227.172H149.813V222.966Z" fill="#C70051"/>
<path d="M179.354 193.517H177.244V195.621H179.354V193.517Z" fill="#C70051"/>
<path d="M179.354 199.828H177.244V204.035H179.354V199.828Z" fill="#C70051"/>
<path d="M192.014 90.4485H189.904V94.6554H192.014V90.4485Z" fill="#C70051"/>
<path d="M194.124 77.8276H192.014V82.0345H194.124V77.8276Z" fill="#C70051"/>
<path d="M251.096 201.931V206.138H248.986V208.241H246.876V210.345H242.656V212.448H240.545V214.552H234.215V212.448H236.325V210.345H240.545V208.241H242.656V206.138H246.876V204.035H248.986V201.931H251.096Z" fill="#C70051"/>
<path d="M192.014 103.069H189.904V107.276H192.014V103.069Z" fill="#C70051"/>
<path d="M261.646 191.414V195.621H259.536V197.724H257.426V199.828H253.206V201.931H251.095V197.724H253.206V195.621H257.426V193.517H259.536V191.414H261.646Z" fill="#C70051"/>
<path d="M158.254 199.828H156.144V204.035H158.254V199.828Z" fill="#C70051"/>
<path d="M179.354 94.6553H177.244V96.7587H179.354V94.6553Z" fill="#C70051"/>
<path d="M208.895 145.138V149.345H206.785V151.448H204.675V153.552H200.455V155.655H198.344V151.448H200.455V149.345H204.675V147.241H206.785V145.138H208.895Z" fill="#C70051"/>
<path d="M274.306 178.793V183H270.086V185.104H267.976V187.207H265.866V189.31H263.756V191.414H261.646V187.207H263.756V185.104H265.866V183H267.976V180.897H270.086V178.793H274.306Z" fill="#C70051"/>
<path d="M175.134 227.173V231.379H173.024V233.483H170.914V229.276H173.024V227.173H175.134Z" fill="#C70051"/>
<path d="M156.143 206.138H154.033V210.345H156.143V206.138Z" fill="#C70051"/>
<path d="M173.024 140.931H170.914V143.035H173.024V140.931Z" fill="#C70051"/>
<path d="M177.244 212.448H175.134V216.655H177.244V212.448Z" fill="#C70051"/>
<path d="M198.344 155.655V159.862H196.234V161.966H192.014V164.069H189.904V166.173H187.794V168.276H183.574V170.379H181.464V166.173H183.574V164.069H187.794V161.966H189.904V159.862H192.014V157.759H196.234V155.655H198.344Z" fill="#C70051"/>
<path d="M170.914 153.552H168.804V155.655H170.914V153.552Z" fill="#C70051"/>
<path d="M185.684 140.931H183.574V145.138H185.684V140.931Z" fill="#C70051"/>
<path d="M189.904 109.379H187.794V113.586H189.904V109.379Z" fill="#C70051"/>
<path d="M229.995 44.1725V46.276H225.775V48.3794H223.665V50.4829H211.005V52.5863H202.564V54.6898H200.454V56.7932H198.344V58.8967H194.124V56.7932H196.234V54.6898H198.344V52.5863H200.454V50.4829H202.564V48.3794H211.005V46.276H223.665V44.1725H225.775V42.0691H229.995V39.9656H238.435V37.8622H248.986V35.7587H259.536V33.6553H272.196V35.7587H280.636V33.6553H291.186V35.7587H303.847V37.8622H305.957V39.9656H310.177V42.0691H312.287V46.276H310.177V44.1725H305.957V42.0691H303.847V39.9656H291.186V37.8622H280.636V39.9656H272.196V37.8622H259.536V39.9656H248.986V42.0691H238.435V44.1725H229.995Z" fill="#C70051"/>
<path d="M187.794 124.104H185.684V128.31H187.794V124.104Z" fill="#C70051"/>
<path d="M164.584 199.828H162.474V204.035H164.584V199.828Z" fill="#C70051"/>
<path d="M211.005 145.138H208.895V140.931H211.005V138.828H213.115V143.035H211.005V145.138Z" fill="#C70051"/>
<path d="M232.105 220.862V222.966H229.995V225.069H223.665V227.172H221.555V229.276H219.445V231.379H217.335V227.172H219.445V225.069H221.555V222.966H223.665V220.862H232.105Z" fill="#C70051"/>
<path d="M187.794 115.69H185.684V117.793H187.794V115.69Z" fill="#C70051"/>
<path d="M143.483 94.6554V90.4485H147.703V92.5519H151.923V90.4485H156.143V94.6554H151.923V96.7588H147.703V94.6554H143.483Z" fill="#C70051"/>
<path d="M149.813 201.931H147.703V204.035H149.813V201.931Z" fill="#C70051"/>
<path d="M170.914 237.69V241.897H164.584V239.793H158.253V237.69H156.143V235.586H154.033V233.483H151.923V231.38H149.813V227.173H151.923V229.276H154.033V231.38H156.143V233.483H158.253V235.586H164.584V237.69H170.914Z" fill="#C70051"/>
<path d="M312.287 122H310.177V126.207H312.287V122Z" fill="#C70051"/>
<path d="M276.416 174.586H274.306V178.793H276.416V174.586Z" fill="#C70051"/>
<path d="M303.847 138.828H301.737V143.035H303.847V138.828Z" fill="#C70051"/>
<path d="M312.287 46.2759H314.397V48.3793H316.507V52.5862H314.397V50.4828H312.287V46.2759Z" fill="#C70051"/>
<path d="M301.737 143.035V147.242H299.627V149.345H297.517V151.448H295.406V147.242H297.517V145.138H299.627V143.035H301.737Z" fill="#C70051"/>
<path d="M324.947 100.966H320.727V105.172H324.947V100.966Z" fill="#C70051"/>
<path d="M329.167 86.2415H327.057V90.4484H329.167V86.2415Z" fill="#C70051"/>
<path d="M445.22 132.517V136.724H443.11V138.828H436.78V140.931H434.67V143.035H428.34V140.931H424.12V143.035H419.899V145.138H417.789V147.241H411.459V149.345H409.349V151.448H407.239V153.552H396.689V151.448H388.249V149.345H386.139V147.241H384.029V143.035H386.139V145.138H388.249V147.241H396.689V149.345H407.239V147.241H409.349V145.138H411.459V143.035H417.789V140.931H419.899V138.828H424.12V136.724H428.34V138.828H434.67V136.724H436.78V134.621H443.11V132.517H445.22Z" fill="#C70051"/>
<path d="M384.029 100.966H375.589V103.069H371.368V98.8622H375.589V96.7587H384.029V94.6553H390.359V98.8622H384.029V100.966Z" fill="#C70051"/>
<path d="M419.899 107.276H417.789V111.483H419.899V107.276Z" fill="#C70051"/>
<path d="M436.78 119.897H434.67V124.104H436.78V119.897Z" fill="#C70051"/>
<path d="M485.311 122V126.207H481.091V128.31H478.981V130.414H476.871V132.517H470.541V134.621H457.88V132.517H455.77V128.31H457.88V130.414H470.541V128.31H476.871V126.207H478.981V124.103H481.091V122H485.311Z" fill="#C70051"/>
<path d="M449.44 128.311H445.22V132.517H449.44V128.311Z" fill="#C70051"/>
<path d="M405.129 124.103V119.897H409.349V117.793H411.459V115.69H415.679V119.897H411.459V122H409.349V124.103H405.129Z" fill="#C70051"/>
<path d="M493.751 115.69H489.531V111.483H493.751V109.379H497.971V113.586H493.751V115.69Z" fill="#C70051"/>
<path d="M358.708 124.104H356.598V128.31H358.708V124.104Z" fill="#C70051"/>
<path d="M417.789 111.483H415.679V115.69H417.789V111.483Z" fill="#C70051"/>
<path d="M504.301 126.207V130.414H502.191V132.517H493.751V128.31H502.191V126.207H504.301Z" fill="#C70051"/>
<path d="M506.411 119.897H504.301V124.104H506.411V119.897Z" fill="#C70051"/>
<path d="M470.541 109.379H468.431V113.586H470.541V109.379Z" fill="#C70051"/>
<path d="M438.89 115.69H436.78V119.897H438.89V115.69Z" fill="#C70051"/>
<path d="M453.66 122V124.104H451.55V119.897H453.66V117.793H457.88V122H453.66Z" fill="#C70051"/>
<path d="M447.33 100.966H445.22V105.172H447.33V100.966Z" fill="#C70051"/>
<path d="M447.33 100.966V96.7588H451.55V94.6554H453.66V92.5519H455.77V90.4485H459.99V94.6554H455.77V96.7588H453.66V98.8623H451.55V100.966H447.33Z" fill="#C70051"/>
<path d="M489.531 115.69V119.897H487.421V122H485.311V117.793H487.421V115.69H489.531Z" fill="#C70051"/>
<path d="M508.521 113.586H506.411V117.793H508.521V113.586Z" fill="#C70051"/>
<path d="M400.909 115.69V111.483H403.019V109.379H405.129V107.276H409.349V111.483H405.129V113.586H403.019V115.69H400.909Z" fill="#C70051"/>
<path d="M512.742 107.276H508.521V111.483H512.742V107.276Z" fill="#C70051"/>
<path d="M512.741 119.897H510.631V122H512.741V119.897Z" fill="#C70051"/>
<path d="M341.828 136.724H339.718V138.828H341.828V136.724Z" fill="#C70051"/>
<path d="M371.368 103.069V107.276H369.258V109.379H367.148V105.173H369.258V103.069H371.368Z" fill="#C70051"/>
<path d="M451.55 124.104H449.44V128.31H451.55V124.104Z" fill="#C70051"/>
<path d="M362.928 115.69V119.897H360.818V122H358.708V117.793H360.818V115.69H362.928Z" fill="#C70051"/>
<path d="M352.378 143.035V147.242H348.158V149.345H337.608V147.242H339.718V145.138H348.158V143.035H352.378Z" fill="#C70051"/>
<path d="M394.579 136.724V132.517H396.689V130.414H398.799V128.31H400.909V126.207H403.019V124.104H405.129V128.31H403.019V130.414H400.909V132.517H398.799V134.621H396.689V136.724H394.579Z" fill="#C70051"/>
<path d="M354.488 132.517H352.378V136.724H354.488V132.517Z" fill="#C70051"/>
<path d="M400.909 115.69H398.799V117.793H400.909V115.69Z" fill="#C70051"/>
<path d="M438.89 113.586V109.38H441V107.276H443.11V105.173H445.22V109.38H443.11V111.483H441V113.586H438.89Z" fill="#C70051"/>
<path d="M356.598 128.311H354.488V132.517H356.598V128.311Z" fill="#C70051"/>
<path d="M472.651 96.7588H470.541V100.966H472.651V96.7588Z" fill="#C70051"/>
<path d="M367.148 109.379V113.586H365.038V115.69H362.928V111.483H365.038V109.379H367.148Z" fill="#C70051"/>
<path d="M592.923 98.8622V94.6553H595.033V92.5519H597.143V90.4484H599.254V88.345H603.474V92.5519H599.254V94.6553H597.143V96.7588H595.033V98.8622H592.923Z" fill="#C70051"/>
<path d="M616.134 73.6208H614.024V77.8278H616.134V73.6208Z" fill="#C70051"/>
<path d="M679.435 67.3105H681.545V69.414H685.765V71.5174H689.986V73.6209H696.316V71.5174H706.866V75.7243H696.316V77.8278H689.986V75.7243H685.765V73.6209H681.545V71.5174H679.435V67.3105Z" fill="#C70051"/>
<path d="M557.052 103.069H554.942V107.276H557.052V103.069Z" fill="#C70051"/>
<path d="M540.172 98.8622H538.062V100.966H535.952V96.7587H538.062V94.6553H540.172V98.8622Z" fill="#C70051"/>
<path d="M550.722 82.0347H546.502V86.2416H550.722V82.0347Z" fill="#C70051"/>
<path d="M578.153 105.173V109.38H576.043V111.483H573.933V107.276H576.043V105.173H578.153Z" fill="#C70051"/>
<path d="M601.364 75.7242V71.5173H603.474V69.4138H605.584V71.5173H607.694V75.7242H605.584V73.6207H603.474V75.7242H601.364Z" fill="#C70051"/>
<path d="M561.273 130.414V134.621H559.163V136.724H557.052V138.828H554.942V140.931H544.392V138.828H542.282V136.724H540.172V132.517H542.282V134.621H544.392V136.724H554.942V134.621H557.052V132.517H559.163V130.414H561.273Z" fill="#C70051"/>
<path d="M582.373 103.069H580.263V105.173H578.153V100.966H580.263V98.8622H582.373V96.7588H584.483V100.966H582.373V103.069Z" fill="#C70051"/>
<path d="M639.344 90.4485V94.6554H633.014V96.7588H628.794V98.8623H624.574V94.6554H628.794V92.5519H633.014V90.4485H639.344Z" fill="#C70051"/>
<path d="M624.574 98.8621V103.069H622.464V105.172H620.354V107.276H616.134V109.379H614.024V111.483H607.694V113.586H605.584V115.69H603.474V117.793H597.143V115.69H588.703V113.586H584.483V109.379H588.703V111.483H597.143V113.586H603.474V111.483H605.584V109.379H607.694V107.276H614.024V105.172H616.134V103.069H620.354V100.966H622.464V98.8621H624.574Z" fill="#C70051"/>
<path d="M565.493 124.104V128.31H563.383V130.414H561.273V126.207H563.383V124.104H565.493Z" fill="#C70051"/>
<path d="M708.976 94.6553H706.866V98.8622H708.976V94.6553Z" fill="#C70051"/>
<path d="M713.196 88.345V92.5519H711.086V94.6553H708.976V90.4484H711.086V88.345H713.196Z" fill="#C70051"/>
<path d="M584.483 105.173H582.373V109.38H584.483V105.173Z" fill="#C70051"/>
<path d="M656.225 54.6897V58.8966H654.115V61H652.005V63.1035H649.895V58.8966H652.005V56.7931H654.115V54.6897H656.225Z" fill="#C70051"/>
<path d="M540.172 94.6553V90.4484H542.282V88.3449H544.392V86.2415H546.502V90.4484H544.392V92.5518H542.282V94.6553H540.172Z" fill="#C70051"/>
<path d="M706.866 98.8621V103.069H704.756V105.172H702.646V107.276H700.536V103.069H702.646V100.966H704.756V98.8621H706.866Z" fill="#C70051"/>
<path d="M529.622 109.379H527.512V113.586H529.622V109.379Z" fill="#C70051"/>
<path d="M700.536 107.276V111.483H698.426V113.586H696.316V115.69H692.096V117.793H689.985V119.897H683.655V122H677.325V117.793H683.655V115.69H689.985V113.586H692.096V111.483H696.316V109.379H698.426V107.276H700.536Z" fill="#C70051"/>
<path d="M687.875 58.8967H685.765V63.1036H687.875V58.8967Z" fill="#C70051"/>
<path d="M559.162 96.7588H557.052V100.966H559.162V96.7588Z" fill="#C70051"/>
<path d="M552.833 86.2415H550.722V88.3449H552.833V86.2415Z" fill="#C70051"/>
<path d="M573.933 111.483V115.69H571.823V117.793H569.713V113.586H571.823V111.483H573.933Z" fill="#C70051"/>
<path d="M603.474 88.3449V84.138H605.584V82.0345H609.804V79.9311H611.914V77.8276H614.024V82.0345H611.914V84.138H609.804V86.2414H605.584V88.3449H603.474Z" fill="#C70051"/>
<path d="M719.526 75.7244V79.9313H717.416V82.0347H715.306V77.8278H717.416V75.7244H719.526Z" fill="#C70051"/>
<path d="M679.435 61H677.325V65.2069H679.435V61Z" fill="#C70051"/>
<path d="M618.244 71.5173H616.134V73.6208H618.244V71.5173Z" fill="#C70051"/>
<path d="M658.335 50.4829H656.225V54.6898H658.335V50.4829Z" fill="#C70051"/>
<path d="M715.306 82.0347H713.196V86.2416H715.306V82.0347Z" fill="#C70051"/>
<path d="M552.833 117.793H550.722V122H552.833V117.793Z" fill="#C70051"/>
<path d="M554.943 111.483H552.833V115.69H554.943V111.483Z" fill="#C70051"/>
<path d="M567.603 69.4138H565.493V71.5173H567.603V69.4138Z" fill="#C70051"/>
<path d="M649.895 63.1035V67.3104H647.785V69.4139H645.675V65.207H647.785V63.1035H649.895Z" fill="#C70051"/>
<path d="M563.383 82.0347H561.273V86.2416H563.383V82.0347Z" fill="#C70051"/>
<path d="M525.402 119.897V124.104H523.292V126.207H521.182V128.311H516.962V126.207H512.741V122H516.962V124.104H521.182V122H523.292V119.897H525.402Z" fill="#C70051"/>
<path d="M569.713 117.793V122H567.603V124.104H565.493V119.897H567.603V117.793H569.713Z" fill="#C70051"/>
<path d="M565.493 75.7244H563.383V79.9313H565.493V75.7244Z" fill="#C70051"/>
<path d="M630.904 71.5173H628.794V75.7242H630.904V71.5173Z" fill="#C70051"/>
<path d="M677.325 46.276H670.995V48.3794H662.555V50.4829H658.335V46.276H662.555V44.1725H670.995V42.0691H677.325V46.276Z" fill="#C70051"/>
<path d="M535.952 100.966V105.172H533.842V107.276H531.732V109.379H529.622V105.172H531.732V103.069H533.842V100.966H535.952Z" fill="#C70051"/>
<path d="M687.875 56.7932V52.5863H689.986V50.4828H692.096V48.3794H696.316V46.2759H698.426V44.1725H700.536V42.069H704.756V39.9656H713.196V44.1725H704.756V46.2759H700.536V48.3794H698.426V50.4828H696.316V52.5863H692.096V54.6897H689.986V56.7932H687.875Z" fill="#C70051"/>
<path d="M597.144 82.0347V77.8278H599.254V75.7244H601.364V79.9313H599.254V82.0347H597.144Z" fill="#C70051"/>
<path d="M645.675 73.6208V77.8277H643.565V79.9312H641.455V75.7243H643.565V73.6208H645.675Z" fill="#C70051"/>
<path d="M641.454 79.9312H639.344V84.1381H641.454V79.9312Z" fill="#C70051"/>
<path d="M527.512 113.586H525.402V117.793H527.512V113.586Z" fill="#C70051"/>
<path d="M561.273 90.4485H559.163V94.6554H561.273V90.4485Z" fill="#C70051"/>
<path d="M291.187 157.759V161.966H286.966V164.069H284.856V166.173H282.746V161.966H284.856V159.862H286.966V157.759H291.187Z" fill="#C70051"/>
<path d="M318.617 52.5864H316.507V56.7933H318.617V52.5864Z" fill="#C70051"/>
<path d="M305.957 134.621H303.847V138.828H305.957V134.621Z" fill="#C70051"/>
<path d="M316.507 117.793H312.287V122H316.507V117.793Z" fill="#C70051"/>
<path d="M333.387 73.6208H331.277V75.7243H333.387V73.6208Z" fill="#C70051"/>
<path d="M295.407 151.448V155.655H293.297V157.759H291.187V153.552H293.297V151.448H295.407Z" fill="#C70051"/>
<path d="M310.177 126.207V130.414H308.067V132.517H305.957V128.31H308.067V126.207H310.177Z" fill="#C70051"/>
<path d="M333.387 58.8967H331.277V63.1036H333.387V58.8967Z" fill="#C70051"/>
<path d="M282.746 166.173H278.526V170.38H282.746V166.173Z" fill="#C70051"/>
<path d="M320.727 105.173H318.617V109.38H320.727V105.173Z" fill="#C70051"/>
<path d="M327.057 92.5518H324.947V96.7587H327.057V92.5518Z" fill="#C70051"/>
<path d="M305.957 109.379H303.847V111.483H305.957V109.379Z" fill="#C70051"/>
<path d="M318.617 109.379H316.507V113.586H318.617V109.379Z" fill="#C70051"/>
<path d="M331.278 79.9312H329.167V84.1381H331.278V79.9312Z" fill="#C70051"/>
<path d="M278.526 170.379H276.416V174.586H278.526V170.379Z" fill="#C70051"/>
</g>
</g>
<defs>
<filter id="filter0_d_24:936" x="-5" y="0" width="892" height="256" filterUnits="userSpaceOnUse" color-interpolation-filters="sRGB">
<feFlood flood-opacity="0" result="BackgroundImageFix"/>
<feColorMatrix in="SourceAlpha" type="matrix" values="0 0 0 0 0 0 0 0 0 0 0 0 0 0 0 0 0 0 127 0" result="hardAlpha"/>
<feOffset dy="7"/>
<feGaussianBlur stdDeviation="2.5"/>
<feComposite in2="hardAlpha" operator="out"/>
<feColorMatrix type="matrix" values="0 0 0 0 0 0 0 0 0 0 0 0 0 0 0 0 0 0 0.25 0"/>
<feBlend mode="normal" in2="BackgroundImageFix" result="effect1_dropShadow_24:936"/>
<feBlend mode="normal" in="SourceGraphic" in2="effect1_dropShadow_24:936" result="shape"/>
</filter>
<clipPath id="clip0_24:936">
<rect width="882" height="244" fill="white"/>
</clipPath>
</defs>
</svg>
