<svg width="80" height="80" viewBox="0 0 80 80" fill="none" xmlns="http://www.w3.org/2000/svg">
<rect x="35" y="20" width="10" height="40" fill="white"/>
<rect x="20" y="45" width="10" height="16" transform="rotate(-90 20 45)" fill="white"/>
<rect x="44" y="45" width="10" height="16" transform="rotate(-90 44 45)" fill="white"/>
<rect x="59" y="42" width="4" height="4" transform="rotate(-90 59 42)" fill="white"/>
<rect x="38" y="63" width="4" height="4" transform="rotate(-90 38 63)" fill="white"/>
<rect x="38" y="21" width="4" height="4" transform="rotate(-90 38 21)" fill="white"/>
<rect x="53" y="54" width="4" height="4" transform="rotate(-90 53 54)" fill="white"/>
<rect x="50" y="57" width="4" height="4" transform="rotate(-90 50 57)" fill="white"/>
<rect x="26" y="57" width="4" height="4" transform="rotate(-90 26 57)" fill="white"/>
<rect x="23" y="54" width="4" height="4" transform="rotate(-90 23 54)" fill="white"/>
<rect x="23" y="30" width="4" height="4" transform="rotate(-90 23 30)" fill="white"/>
<rect x="26" y="27" width="4" height="4" transform="rotate(-90 26 27)" fill="white"/>
<rect x="53" y="30" width="4" height="4" transform="rotate(-90 53 30)" fill="white"/>
<rect x="50" y="27" width="4" height="4" transform="rotate(-90 50 27)" fill="white"/>
<rect x="17" y="42" width="4" height="4" transform="rotate(-90 17 42)" fill="white"/>
<rect x="44" y="44" width="10" height="10" fill="white"/>
<rect x="26" y="44" width="10" height="10" fill="white"/>
<rect x="26" y="26" width="10" height="10" fill="white"/>
<rect x="19" y="19" width="8" height="8" fill="white"/>
<rect x="19" y="53" width="8" height="8" fill="white"/>
<rect x="53" y="53" width="8" height="8" fill="white"/>
<rect x="44" y="26" width="10" height="10" fill="white"/>
<rect x="53" y="19" width="8" height="8" fill="white"/>
</svg>
