<svg width="44" height="32" viewBox="0 0 44 32" fill="none" xmlns="http://www.w3.org/2000/svg">
<path d="M43.0028 3.69303C42.3116 3.96536 41.6009 4.1952 40.8748 4.3818C41.7345 3.51815 42.3899 2.50194 42.79 1.38991C42.8797 1.14065 42.7868 0.867812 42.5561 0.70479C42.3258 0.541642 42.0057 0.5221 41.7521 0.655619C40.2099 1.46808 38.5462 2.05196 36.8016 2.39339C35.0444 0.868065 32.6576 0 30.1902 0C24.9819 0 20.7445 3.76388 20.7445 8.39028C20.7445 8.75465 20.7705 9.11701 20.8219 9.47432C14.3589 8.97025 8.35035 6.14844 4.2243 1.65254C4.07726 1.49229 3.85073 1.40592 3.61881 1.42244C3.38674 1.43858 3.17824 1.55483 3.061 1.73348C2.22415 3.00904 1.78174 4.46792 1.78174 5.95226C1.78174 7.97396 2.59432 9.89215 4.02971 11.391C3.59326 11.2567 3.16972 11.0889 2.76549 10.8896C2.54847 10.7823 2.28362 10.7839 2.06802 10.8937C1.85228 11.0036 1.71702 11.2055 1.71134 11.4263C1.71035 11.4635 1.71035 11.5007 1.71035 11.5384C1.71035 14.5561 3.53875 17.273 6.33416 18.7539C6.09401 18.7325 5.854 18.7017 5.61555 18.6612C5.36972 18.6194 5.11693 18.696 4.95115 18.8625C4.78509 19.029 4.73016 19.2609 4.80666 19.4728C5.84137 22.3424 8.50534 24.4531 11.7259 25.0966C9.05477 26.5827 6.00019 27.3611 2.7936 27.3611C2.12451 27.3611 1.4516 27.3262 0.793021 27.257C0.465861 27.2224 0.153036 27.394 0.0416171 27.6704C-0.0698019 27.9469 0.048288 28.2552 0.326623 28.4136C4.446 30.7599 9.2092 32 14.101 32C23.7177 32 29.7336 27.9717 33.0868 24.5924C37.2682 20.3786 39.6663 14.8012 39.6663 9.29037C39.6663 9.06015 39.6623 8.82766 39.6544 8.59592C41.3041 7.49183 42.7245 6.15563 43.8802 4.61984C44.0558 4.38659 44.0368 4.07833 43.8334 3.86361C43.6303 3.64877 43.2918 3.5793 43.0028 3.69303Z" fill="white"/>
</svg>
